<svg width="21" height="19" fill="none" xmlns="http://www.w3.org/2000/svg"><path d="M12.38 18.046c-1.45 0-2.956-.34-4.355-.988a.263.263 0 0 1-.134-.145.249.249 0 0 1 .01-.196l.768-1.613a.256.256 0 0 1 .339-.12c1.092.501 2.26.767 3.371.767.135 0 .271-.003.406-.01 1.353-.079 2.623-.605 3.49-1.44.85-.821 1.452-1.954 1.736-3.277.274-1.276.226-2.631-.142-3.818a6.643 6.643 0 0 0-2.118-3.14 7.037 7.037 0 0 0-3.342-1.539 5.991 5.991 0 0 0-.95-.075 5.4 5.4 0 0 0-1.845.314c.11.134.215.277.314.427.602.915.983 2.134 1.104 3.522.145 1.643-.078 3.452-.612 4.963-.631 1.788-1.63 2.967-2.816 3.318a2.85 2.85 0 0 1-.82.121c-1.127 0-2.157-.66-2.756-1.766-.8-1.48-.762-3.471-.663-4.843.123-1.71.674-3.35 1.597-4.762a4.545 4.545 0 0 0-.223.12c-.464.28-.902.707-1.299 1.27a7.967 7.967 0 0 0-.993 1.992.254.254 0 0 1-.242.175.252.252 0 0 1-.1-.019L.453 6.597a.253.253 0 0 1-.142-.32 10.5 10.5 0 0 1 1.25-2.461c1.214-1.73 2.8-2.642 4.586-2.642a5.225 5.225 0 0 1 1.23.145c.4-.252.826-.47 1.272-.644A7.71 7.71 0 0 1 11.46.157c.435 0 .875.035 1.31.104a9.235 9.235 0 0 1 4.456 2.043 8.945 8.945 0 0 1 2.84 4.228c.481 1.555.548 3.324.191 4.977-.38 1.772-1.205 3.31-2.386 4.449-1.273 1.23-3.031 1.967-4.953 2.077-.183.006-.363.011-.54.011ZM7.66 4.022c-.225.231-.44.489-.636.768a7.7 7.7 0 0 0-1.37 3.874c-.045.625-.182 2.523.393 3.584.032.056.316.56.74.56a.59.59 0 0 0 .164-.024c.427-.126.95-.88 1.302-1.876.422-1.197.604-2.692.492-3.997-.089-1.012-.344-1.863-.736-2.462a2.858 2.858 0 0 0-.349-.427Z" fill="#F9E9DB"/></svg>