<svg width="182" height="37" fill="none" xmlns="http://www.w3.org/2000/svg"><path d="M36.011 18.603c0 9.734-7.67 17.036-17.624 17.624-8.332.491-17.623-7.89-17.623-17.624C.764 8.87 9.82 0 21.622 0c9.734 0 14.39 8.87 14.39 18.603Z" fill="#FF5F1F"/><path d="M20.38 27.046c-1.45 0-2.956-.34-4.355-.988a.263.263 0 0 1-.134-.145.249.249 0 0 1 .01-.196l.768-1.613a.256.256 0 0 1 .339-.12c1.092.501 2.26.767 3.371.767.135 0 .271-.003.406-.01 1.353-.079 2.622-.605 3.49-1.44.85-.821 1.452-1.954 1.736-3.277.274-1.276.226-2.631-.142-3.818a6.643 6.643 0 0 0-2.118-3.14 7.038 7.038 0 0 0-3.342-1.539 5.992 5.992 0 0 0-.95-.075 5.39 5.39 0 0 0-1.845.314c.11.134.215.277.314.427.602.915.983 2.134 1.104 3.522.145 1.643-.078 3.452-.612 4.963-.631 1.788-1.63 2.967-2.816 3.319-.269.08-.545.12-.82.12-1.127 0-2.157-.66-2.756-1.766-.8-1.48-.762-3.471-.663-4.843.123-1.71.674-3.35 1.597-4.762a4.466 4.466 0 0 0-.223.12c-.464.28-.902.707-1.299 1.27a7.97 7.97 0 0 0-.993 1.992.254.254 0 0 1-.242.175.252.252 0 0 1-.1-.019l-1.653-.687a.253.253 0 0 1-.142-.32 10.5 10.5 0 0 1 1.25-2.461c1.214-1.73 2.8-2.642 4.586-2.642a5.225 5.225 0 0 1 1.23.145c.4-.252.826-.47 1.272-.644a7.709 7.709 0 0 1 2.813-.518c.435 0 .875.035 1.31.104a9.235 9.235 0 0 1 4.456 2.043 8.945 8.945 0 0 1 2.84 4.228c.481 1.555.548 3.324.191 4.977-.38 1.772-1.205 3.31-2.386 4.449-1.273 1.23-3.031 1.967-4.953 2.077-.183.006-.363.011-.54.011Zm-4.72-14.024a6.2 6.2 0 0 0-.636.768 7.7 7.7 0 0 0-1.37 3.874c-.045.625-.182 2.523.393 3.584.032.056.316.56.74.56a.591.591 0 0 0 .164-.023c.427-.127.95-.881 1.302-1.877.422-1.197.604-2.693.492-3.997-.089-1.012-.344-1.863-.736-2.462a2.855 2.855 0 0 0-.349-.427Z" fill="#F9E9DB"/><path d="M57.586 18.534v5.61h-2.773v-5.61c0-1.568-.827-2.223-2.053-2.223-.763 0-1.547.255-2.202 1.058.043.317.065.636.065.996v5.78H47.85v-5.78c0-1.547-.827-2.054-1.885-2.054-.867 0-1.65.338-2.309 1.186v6.65h-2.773V14.048h2.773v.677c.677-.572 1.46-.932 2.669-.932 1.334 0 2.456.424 3.218 1.27.996-.846 2.033-1.27 3.41-1.27 2.727-.003 4.633 1.691 4.633 4.74Zm13.825-4.51L65.054 28.82l-2.931.025 6.368-14.821h2.92Zm11.184-2.916v13.036h-2.773v-.572c-.784.508-1.78.827-2.902.827-2.795 0-5.039-2.37-5.039-5.315 0-2.92 2.244-5.294 5.039-5.294 1.122 0 2.118.317 2.902.827v-3.506h2.773v-.003Zm-2.773 9.584v-3.197c-.658-.932-1.568-1.187-2.478-1.187-1.587 0-2.69 1.27-2.69 2.773 0 1.525 1.1 2.795 2.69 2.795.913.002 1.823-.253 2.478-1.184Zm15.098-.784h-7.41c.212 1.165.974 2.054 2.561 2.054.74 0 1.248-.126 1.608-.572h3.071c-.677 1.906-2.478 3.007-4.7 3.007-3.24 0-5.377-2.287-5.377-5.294 0-3.007 2.117-5.315 5.207-5.315 3.471.002 5.568 2.628 5.04 6.12Zm-7.348-1.882h4.593c-.148-1.29-.975-1.884-2.266-1.884-1.353 0-2.072.824-2.327 1.884Zm16.705 2.224h2.838c-.317 2.434-2.435 4.15-5.039 4.15-3.028 0-5.377-2.288-5.377-5.294 0-3.007 2.349-5.316 5.377-5.316 2.604 0 4.722 1.737 5.039 4.172h-2.838c-.212-.974-1.057-1.651-2.201-1.651-1.586 0-2.604 1.248-2.604 2.794 0 1.547 1.018 2.774 2.604 2.774 1.144 0 1.989-.658 2.201-1.63Zm15.267-1.145c0 3.112-2.201 5.294-5.356 5.294-3.175 0-5.377-2.18-5.377-5.294 0-3.132 2.202-5.315 5.377-5.315 3.155 0 5.356 2.183 5.356 5.316Zm-2.773 0c0-1.65-1.058-2.794-2.583-2.794-1.546 0-2.604 1.144-2.604 2.794 0 1.63 1.058 2.774 2.604 2.774 1.522 0 2.583-1.144 2.583-2.774Zm11.095-5.229v2.625c-1.568.086-2.712.55-3.579 1.525v6.118h-2.773V14.045h2.773v1.165c.91-.87 2.075-1.334 3.579-1.334Zm9.785 7.557c-.51.212-1.101.403-1.737.403-1.039 0-1.777-.53-1.777-1.716v-3.747h3.704v-2.5h-3.704v-2.765h-2.776v.22a2.545 2.545 0 0 0 2.545 2.545h-4.703v2.5h2.158v3.747c0 2.583 1.525 4.28 4.236 4.28.741 0 1.503-.087 2.435-.446l-.381-2.521Z" fill="#343332"/><path d="M65.573 24.144h-2.226a.726.726 0 0 1-.671-.448l-4.008-9.672h2.964l3.94 10.12Zm80.759-10.268v2.625c-1.568.086-2.711.55-3.578 1.525v6.118h-2.773V14.045h2.773v1.165c.91-.87 2.075-1.334 3.578-1.334Zm10.268 3.619v6.65h-2.73v-.594a5.252 5.252 0 0 1-2.859.848c-2.582 0-4.043-1.29-4.043-3.345 0-1.967 1.568-2.92 3.896-2.92h3.006v-.637c0-.826-.572-1.334-1.737-1.334-1.186 0-1.884.403-1.989 1.27h-2.773c.126-2.647 2.413-3.643 4.765-3.643 2.515 0 4.464 1.144 4.464 3.705Zm-2.733 3.833v-1.143h-3.068c-.846 0-1.186.402-1.186.848 0 .529.424 1.1 1.736 1.1.889 0 1.587-.19 2.518-.805Zm15.479-10.22v13.036h-2.773v-.572c-.784.508-1.777.827-2.899.827-2.795 0-5.039-2.37-5.039-5.315 0-2.92 2.244-5.294 5.039-5.294 1.122 0 2.118.317 2.899.827v-3.506h2.773v-.003Zm-2.773 9.584v-3.197c-.655-.932-1.567-1.187-2.478-1.187-1.589 0-2.689 1.27-2.689 2.773 0 1.525 1.1 2.795 2.689 2.795.911.002 1.821-.253 2.478-1.184Zm15.095-.784h-7.409c.212 1.165.974 2.054 2.561 2.054.741 0 1.248-.126 1.608-.572h3.071c-.677 1.906-2.478 3.007-4.701 3.007-3.24 0-5.377-2.287-5.377-5.294 0-3.007 2.118-5.315 5.208-5.315 3.474.002 5.57 2.628 5.039 6.12Zm-7.345-1.882h4.593c-.147-1.29-.974-1.884-2.265-1.884-1.356 0-2.075.824-2.328 1.884Z" fill="#343332"/></svg>