<svg width="27" height="27" fill="none" xmlns="http://www.w3.org/2000/svg"><path d="M10.488 26.828a4.243 4.243 0 0 1-3.021-1.252h-.001l-6.042-6.043a4.272 4.272 0 0 1 0-6.042L13.51 1.407a4.378 4.378 0 0 1 6.043 0l6.041 6.043a4.27 4.27 0 0 1 0 6.041L13.51 25.576a4.246 4.246 0 0 1-3.021 1.253v-.002Z" fill="#C0DBFF"/><path d="M1.424 8.874A1.424 1.424 0 0 1 .417 6.443L6.459.4a1.424 1.424 0 0 1 2.013 2.014L2.431 8.457a1.42 1.42 0 0 1-1.007.417ZM19.55 27a1.424 1.424 0 0 1-1.007-2.431l6.043-6.043A1.424 1.424 0 0 1 26.6 20.54l-6.043 6.043A1.418 1.418 0 0 1 19.55 27ZM9.481 18.943a1.424 1.424 0 1 0 0-2.848 1.424 1.424 0 0 0 0 2.848Z" fill="#005EE1"/><rect x="18.788" y="3.522" width="7.121" height="1.424" rx=".712" transform="rotate(45 18.788 3.522)" fill="#005EE1"/></svg>