<svg width="14" height="15" fill="none" xmlns="http://www.w3.org/2000/svg"><g clip-path="url(#Frame__a)"><path d="m13.047 12.781-2.464-2.456a5.74 5.74 0 0 0 1.225-3.552 5.798 5.798 0 1 0-5.799 5.798 5.74 5.74 0 0 0 3.552-1.224l2.457 2.464a.725.725 0 0 0 1.188-.236.725.725 0 0 0-.16-.793ZM1.66 6.773a4.349 4.349 0 1 1 8.697 0 4.349 4.349 0 0 1-8.697 0Z" fill="#07F" fill-opacity=".5"/></g><defs><clipPath id="Frame__a"><path fill="#fff" transform="translate(.211 .975)" d="M0 0h13.05v13.05H0z"/></clipPath></defs></svg>